<svg xmlns="http://www.w3.org/2000/svg" viewBox="0 0 120 120">
<style>.k{fill:none;stroke:#151615;stroke-width:2;stroke-linecap:round;stroke-linejoin:round}.h{fill:none;stroke:#151615;stroke-width:1;stroke-linecap:round;opacity:.7}.p{fill:#fff}.s{fill:#c8da8c}.e{fill:#2c2d2b}</style>
<!-- a lamparina escondida (Lc 8.16): uma cama baixa de pés curtos, com o travesseiro e a coberta, e embaixo dela, no chão, uma lamparina apagada, sem chama nem luz. Sem área sálvia. -->
<path class="h" d="M6 104H114"/>
<path class="k" d="M14 76V104M106 76V104"/>
<path class="k p" d="M10 70H110V76H10Z"/>
<path class="k p" d="M12 70C12 62 28 62 30 70Z"/>
<path class="h" d="M34 67H106"/>
<path class="k" d="M47 92.5C40 92 38.5 85 43 84.5C46 84 47.5 87 47.5 89.5"/>
<path class="k p" d="M53.5 100L54.5 104H65.5L66.5 100Z"/>
<path class="k p" d="M44 95C44 90 51 87.5 59 88C65 88.5 71 89.5 77 90L81.5 89.5C83 89.5 83.5 91 82.5 92L78.5 94C74 97.5 67 101 59 101C50 101 44 99.5 44 95Z"/>
<ellipse class="k e" cx="58" cy="89.5" rx="3.5" ry="1.1"/>
<path class="h" d="M47.5 97.5C53 100 63 100 71 96.5M50 94C54 95 60 95 65 94"/>
</svg>
